<svg version="1.2" xmlns="http://www.w3.org/2000/svg" viewBox="0 0 106 107" width="106" height="107">
	<title>like-svg</title>
	<style>
		.s0 { fill: none;stroke: #000000;stroke-width: 1.4 } 
		.s1 { fill: none;stroke: #000000;stroke-linecap: round;stroke-linejoin: round;stroke-width: 1.4 } 
	</style>
	<path id="Layer" class="s0" d="m17.1 43.9h11.5c2.6 0 4.9 2 4.9 4.8v37.2c0 2.5-2 4.8-4.9 4.8h-11.5q-0.9-0.1-1.7-0.5-0.8-0.4-1.5-1.1-0.6-0.6-0.9-1.5-0.4-0.8-0.4-1.7v-37.5c0-2.5 2-4.5 4.5-4.5z"/>
	<circle id="Layer" class="s0" cx="22.5" cy="79.3" r="2"/>
	<path id="Layer" class="s1" d="m36.3 51.5l19.9-18.3 6.8-13.9c1.5-3 7.4-2 8.7 1.3 1.3 3-0.2 11.4-1.7 14.4l-6.4 11.1 23.2-1.5c3.3-0.2 6.6 2.3 6.6 5.6 0 3.3-2.2 6.3-5.6 6.6 1.3 1 2 2.5 2.3 4.3 0.3 3-1.8 5.8-4.8 6.3q0.6 0.4 1.1 0.9 0.5 0.5 0.9 1.2 0.4 0.6 0.6 1.3 0.2 0.7 0.2 1.4c0.2 3-1.8 5.9-4.9 6.4q0.6 0.4 1.1 0.9 0.5 0.5 0.9 1.2 0.4 0.6 0.6 1.3 0.2 0.7 0.2 1.4c0.3 3.3-2.2 6.6-5.6 6.6l-25 0.5c-9.2 0.2-17-4.9-21.7-11.7"/>
</svg>