<svg version="1.2" xmlns="http://www.w3.org/2000/svg" viewBox="0 0 106 106" width="106" height="106">
	<title>pedido-svg</title>
	<style>
		.s0 { fill: #ffffff } 
		.s1 { fill: none;stroke: #000000;stroke-linecap: round;stroke-linejoin: round;stroke-width: 1.4 } 
	</style>
	<path id="Layer" class="s0" d="m17.3 32c-0.1-2.2 1.5-4.2 3.7-4.3l57.7-5.1c2.2-0.2 4.1 1.4 4.3 3.6l3.6 41.8c0.2 2.2-1.4 4.1-3.6 4.3l-57.7 5.1c-2.2 0.2-4.1-1.5-4.3-3.7z"/>
	<path id="Layer" class="s1" d="m23.8 77q-0.8-0.2-1.4-0.7-0.6-0.5-1-1.2-0.3-0.7-0.4-1.5l-3.7-41.9q-0.1-0.8 0.2-1.6 0.2-0.7 0.8-1.3 0.5-0.6 1.2-1 0.7-0.3 1.5-0.4l57.7-5.1q0.8-0.1 1.6 0.2 0.7 0.2 1.3 0.8 0.6 0.5 1 1.2 0.3 0.7 0.4 1.5l3.8 41.8q0.1 0.8-0.2 1.6-0.2 0.8-0.7 1.4-0.5 0.6-1.3 1-0.7 0.3-1.5 0.4l-57.8 5q-0.8 0.1-1.5-0.2zm4-25.8l28.5-2.5m-27.9 9.5l40.4-3.6m-39.8 10.5l19.5-1.7m-21.8-25.1l48.3-4.3"/>
	<path id="Layer" class="s0" d="m53.4 39.1c2.5 0 4.5 1.9 4.5 4.3l0.4 11.5q0.3-0.3 0.6-0.6 0.4-0.2 0.7-0.4 0.4-0.2 0.9-0.3 0.4-0.1 0.8-0.1c2.2-0.1 3.9 1.5 4.4 3.5 0.6-1 2-1.9 3.5-1.8 2.2-0.2 3.9 1.5 4.4 3.5 0.6-1 2.1-2 3.5-1.8 2.4 0 4.5 1.8 4.5 4.3l-0.2 17.4c-0.3 14.2-20 21.6-28.4 9.6l-14.6-21c-1.3-2-1-4.6 1.1-6 2.5 0 6.6 1.6 7.8 3.5l2.8 4-0.7-25.1q0-0.8 0.2-1.6 0.3-0.8 0.9-1.5 0.5-0.6 1.3-1 0.8-0.3 1.6-0.4z"/>
	<path id="Layer" class="s1" d="m53.4 39.1c2.5 0 4.5 1.9 4.5 4.3l0.4 11.5q0.3-0.3 0.6-0.6 0.4-0.2 0.7-0.4 0.4-0.2 0.9-0.3 0.4-0.1 0.8-0.1c2.2-0.1 3.9 1.5 4.4 3.5 0.6-1 2-1.9 3.5-1.8 2.2-0.2 3.9 1.5 4.4 3.5 0.6-1 2.1-2 3.5-1.8 2.4 0 4.5 1.8 4.5 4.3l-0.2 17.4c-0.3 14.2-20 21.6-28.4 9.6l-14.6-21c-1.3-2-1-4.6 1.1-6 2.5 0 6.6 1.6 7.8 3.5l2.8 4-0.7-25.1q0-0.8 0.2-1.6 0.3-0.8 0.9-1.5 0.5-0.6 1.3-1 0.8-0.3 1.6-0.4z"/>
</svg>